HIERARCHY
ROOT Hips
{
	OFFSET 0.00000 0.00000 0.00000
	CHANNELS 6 Xposition Yposition Zposition Zrotation Yrotation Xrotation 
	JOINT LHipJoint
	{
		OFFSET 0 0 0
		CHANNELS 3 Zrotation Yrotation Xrotation
		JOINT LeftHip
		{
			OFFSET 2.36090 -1.39315 1.24752
			CHANNELS 3 Zrotation Yrotation Xrotation
			JOINT LeftKnee
			{
				OFFSET 2.06810 -5.68207 0.00000
				CHANNELS 3 Zrotation Yrotation Xrotation
				JOINT LeftAnkle
				{
					OFFSET 2.46631 -6.77613 0.00000
					CHANNELS 3 Zrotation Yrotation Xrotation
					JOINT LeftToe
					{
						OFFSET 0.26031 -0.71520 1.99545
						CHANNELS 3 Zrotation Yrotation Xrotation
						End Site
						{
							OFFSET 0.00000 -0.00000 1.05957
						}
					}
				}
			}
		}
	}
	JOINT RHipJoint
	{
		OFFSET 0 0 0
		CHANNELS 3 Zrotation Yrotation Xrotation
		JOINT RightHip
		{
			OFFSET -2.25243 -1.39315 1.24752
			CHANNELS 3 Zrotation Yrotation Xrotation
			JOINT RightKnee
			{
				OFFSET -2.17343 -5.97145 0.00000
				CHANNELS 3 Zrotation Yrotation Xrotation
				JOINT RightAnkle
				{
					OFFSET -2.52372 -6.93386 0.00000
					CHANNELS 3 Zrotation Yrotation Xrotation
					JOINT RightToe
					{
						OFFSET -0.22538 -0.61923 2.11447
						CHANNELS 3 Zrotation Yrotation Xrotation
						End Site
						{
							OFFSET -0.00000 -0.00000 1.10506
						}
					}
				}
			}
		}
	}
	JOINT lowerback
	{
		OFFSET 0 0 0
		CHANNELS 3 Zrotation Yrotation Xrotation
		JOINT Chest
		{
			OFFSET 0.01594 2.13103 0.08007
			CHANNELS 3 Zrotation Yrotation Xrotation
			JOINT Chest2
			{
				OFFSET 0.01393 2.09723 0.18338
				CHANNELS 3 Zrotation Yrotation Xrotation
				JOINT lowerneck
				{
					OFFSET 0 0 0
					CHANNELS 3 Zrotation Yrotation Xrotation
					JOINT Neck
					{
						OFFSET 0.05351 1.38915 0.32494
						CHANNELS 3 Zrotation Yrotation Xrotation
						JOINT Head
						{
							OFFSET 0.00711 1.45992 -0.21666
							CHANNELS 3 Zrotation Yrotation Xrotation
							End Site
							{
								OFFSET -0.00433 1.47702 -0.11056
							}
						}
					}
				}
				JOINT LeftCollar
				{
					OFFSET 0 0 0
					CHANNELS 3 Zrotation Yrotation Xrotation
					JOINT LeftShoulder
					{
						OFFSET 2.87198 0.92249 0.11132
CHANNELS 3 Zrotation Xrotation Yrotation
						JOINT LeftElbow
						{
OFFSET 0 -5.527310 0.000000
CHANNELS 3 Zrotation Xrotation Yrotation
							JOINT LeftWrist
							{
OFFSET 0 -3.110590 0.000000
CHANNELS 3 Zrotation Xrotation Yrotation
								JOINT lhand
								{
									OFFSET 0 0 0
CHANNELS 3 Zrotation Xrotation Yrotation
									JOINT LFingers
									{
OFFSET 0 -0.419630 0.000000
CHANNELS 3 Zrotation Xrotation Yrotation
										End Site
										{
OFFSET 0 -0.338310 0.000000
										}
									}
								}
								JOINT LThumb
								{
OFFSET 0 0.000000 0.000000
CHANNELS 3 Zrotation Xrotation Yrotation
									End Site
									{
OFFSET 0 -0.343480 0.343480
									}
								}
							}
						}
					}
				}
				JOINT RightCollar
				{
					OFFSET 0 0 0
					CHANNELS 3 Zrotation Yrotation Xrotation
					JOINT RightShoulder
					{
						OFFSET -2.94710 0.68072 0.32187
CHANNELS 3 Zrotation Xrotation Yrotation
						JOINT RightElbow
						{
OFFSET 0 -5.253960 -0.000000
CHANNELS 3 Zrotation Xrotation Yrotation
							JOINT RightWrist
							{
OFFSET 0 -3.105670 0.000000
CHANNELS 3 Zrotation Xrotation Yrotation
								JOINT rhand
								{
									OFFSET 0 0 0
CHANNELS 3 Zrotation Xrotation Yrotation
									JOINT RFingers
									{
OFFSET 0 -0.498680 0.000000
CHANNELS 3 Zrotation Xrotation Yrotation
										End Site
										{
OFFSET 0 -0.402040 0.000000
										}
									}
								}
								JOINT RThumb
								{
OFFSET 0 0.000000 0.000000
CHANNELS 3 Zrotation Xrotation Yrotation
									End Site
									{
OFFSET 0 -0.408180 0.408180
									}
								}
							}
						}
					}
				}
			}
		}
	}
}
MOTION
Frames: 6
Frame Time: 0.008333333333333333
3.853604 15.845436 12.873798 -4.309508 -7.166269 26.541657 0.000000 0.000000 0.000000 -1.162127 -24.536289 -16.068843 0.280926 3.408919 9.419505 -2.994061 29.824965 -20.165889 0.264712 -3.306376 -9.133242 0.000000 0.000000 0.000000 1.683234 40.077973 -18.991305 -0.971258 -6.274200 17.582210 4.050413 -38.317952 -37.468066 -0.035188 -1.211268 3.330229 3.498221 -0.334000 -16.621020 0.119132 -1.028356 -6.199699 -2.044463 -0.561867 2.643265 1.047316 -2.822962 -23.097408 6.799261 -6.171833 21.448873 1.304076 -1.850565 10.982898 0.000000 0.000000 0.000000 12.828998 -4.241305 -52.218931 92.736173 -59.971620 62.369331 49.887943 -45.726365 -8.026898 0.000000 0.000000 0.000000 -7.125000 0.000000 0.000000 20.533359 41.394070 1.916839 0.000000 0.000000 0.000000 -11.283917 -4.276786 60.544422 -91.145784 -59.995051 -60.992216 -18.226434 -31.624564 26.126547 0.000000 0.000000 0.000000 7.125000 0.000000 0.000000 12.841559 56.826488 -3.765914
3.869108 15.846695 12.884145 -4.193334 -7.035902 26.465418 0.000000 0.000000 0.000000 -1.463610 -24.050443 -16.202296 0.279861 3.402443 9.401354 -2.899601 29.335014 -19.494531 0.301306 -3.527892 -9.752150 0.000000 0.000000 0.000000 1.671031 39.849180 -18.803496 -0.966086 -6.257984 17.534861 4.012281 -38.261641 -37.536400 -0.035110 -1.209516 3.325421 3.364591 -0.360914 -16.668968 0.049865 -1.041145 -6.208875 -2.044936 -0.567122 2.659720 0.952378 -2.885196 -22.902236 6.886305 -6.237171 21.389934 1.341763 -1.884053 10.933387 0.000000 0.000000 0.000000 12.767497 -4.371835 -52.089502 92.970874 -59.966581 62.572494 49.692591 -45.468684 -7.974352 0.000000 0.000000 0.000000 -7.125000 0.000000 0.000000 20.335582 41.289568 1.951782 0.000000 0.000000 0.000000 -11.206680 -4.358318 60.543229 -91.240647 -59.994203 -61.074370 -18.320072 -31.459517 25.738723 0.000000 0.000000 0.000000 7.125000 0.000000 0.000000 12.541624 56.460882 -3.563787
3.885113 15.847892 12.894242 -4.062823 -6.903970 26.392496 0.000000 0.000000 0.000000 -1.757016 -23.651806 -16.304760 0.277169 3.386139 9.355656 -2.821669 28.913490 -18.877951 0.338776 -3.738953 -10.343450 0.000000 0.000000 0.000000 1.630719 39.633033 -18.634094 -0.963543 -6.249906 17.511302 3.963068 -38.198068 -37.646867 -0.035783 -1.220660 3.356235 3.220319 -0.387390 -16.715414 -0.028292 -1.051242 -6.214858 -2.048227 -0.570936 2.678866 0.841163 -2.942860 -22.747194 7.001708 -6.300819 21.342891 1.392471 -1.913222 10.897711 0.000000 0.000000 0.000000 12.705495 -4.500925 -51.960636 93.162190 -59.962168 62.738157 49.479586 -45.230474 -7.920054 0.000000 0.000000 0.000000 -7.125000 0.000000 0.000000 20.121903 41.180747 1.986036 0.000000 0.000000 0.000000 -11.118801 -4.437597 60.524381 -91.304145 -59.993604 -61.129416 -18.374520 -31.282261 25.371871 0.000000 0.000000 0.000000 7.125000 0.000000 0.000000 12.299973 56.106671 -3.387579
3.901922 15.848965 12.904030 -3.921008 -6.770309 26.317474 0.000000 0.000000 0.000000 -2.068768 -23.258542 -16.394623 0.273426 3.363472 9.292293 -2.741389 28.480354 -18.271316 0.377173 -3.941984 -10.913687 0.000000 0.000000 0.000000 1.572246 39.422569 -18.473648 -0.962976 -6.248253 17.506397 3.909655 -38.133755 -37.777841 -0.036518 -1.233533 3.391558 3.071970 -0.413311 -16.753458 -0.116456 -1.059053 -6.215900 -2.059239 -0.573577 2.698878 0.742858 -2.998239 -22.679803 7.118902 -6.373608 21.340630 1.439782 -1.941340 10.895330 0.000000 0.000000 0.000000 12.647879 -4.626802 -51.833871 93.308044 -59.958559 62.864411 49.251447 -45.019134 -7.854513 0.000000 0.000000 0.000000 -7.125000 0.000000 0.000000 19.891793 41.054568 2.025912 0.000000 0.000000 0.000000 -11.014058 -4.516320 60.484162 -91.334719 -59.993253 -61.155863 -18.387583 -31.086475 25.042823 0.000000 0.000000 0.000000 7.125000 0.000000 0.000000 12.124848 55.780873 -3.242132
3.919302 15.849866 12.913680 -3.774105 -6.634674 26.243399 0.000000 0.000000 0.000000 -2.389177 -22.869555 -16.481355 0.269353 3.338550 9.222755 -2.659006 28.036835 -17.676905 0.416168 -4.138898 -11.467967 0.000000 0.000000 0.000000 1.502706 39.215021 -18.320831 -0.963558 -6.250147 17.511933 3.851920 -38.066213 -37.923668 -0.037595 -1.251524 3.441031 2.923858 -0.437212 -16.787392 -0.211519 -1.063677 -6.214620 -2.077034 -0.574690 2.719254 0.658426 -3.054708 -22.638311 7.233805 -6.453626 21.343788 1.482648 -1.971065 10.899784 0.000000 0.000000 0.000000 12.592869 -4.750029 -51.712155 93.409837 -59.955996 62.952559 49.004908 -44.849872 -7.765324 0.000000 0.000000 0.000000 -7.125000 0.000000 0.000000 19.638770 40.893105 2.079476 0.000000 0.000000 0.000000 -10.898301 -4.592147 60.427298 -91.337440 -59.993210 -61.158220 -18.378759 -30.877532 24.720976 0.000000 0.000000 0.000000 7.125000 0.000000 0.000000 11.979213 55.457409 -3.107703
3.937227 15.850557 12.923253 -3.624532 -6.496563 26.169437 0.000000 0.000000 0.000000 -2.715581 -22.484924 -16.566636 0.265278 3.313342 9.152484 -2.574304 27.581967 -17.098386 0.455605 -4.329495 -12.005674 0.000000 0.000000 0.000000 1.426425 39.010008 -18.171790 -0.964938 -6.254449 17.524580 3.788377 -37.993202 -38.086534 -0.039265 -1.278492 3.515338 2.778062 -0.458774 -16.817074 -0.312407 -1.065086 -6.210618 -2.101650 -0.574262 2.740287 0.589559 -3.112900 -22.612368 7.344078 -6.540651 21.345250 1.520025 -2.002974 10.906340 0.000000 0.000000 0.000000 12.539890 -4.870680 -51.596448 93.464919 -59.954611 63.000310 48.737447 -44.733980 -7.643816 0.000000 0.000000 0.000000 -7.125000 0.000000 0.000000 19.358358 40.684087 2.151723 0.000000 0.000000 0.000000 -10.772294 -4.664796 60.353849 -91.312039 -59.993491 -61.136253 -18.351971 -30.654751 24.403741 0.000000 0.000000 0.000000 7.125000 0.000000 0.000000 11.857140 55.134663 -2.981557
